<?xml version="1.0" encoding="UTF-8"?>
<svg xmlns="http://www.w3.org/2000/svg" id="Layer_1" data-name="Layer 1" viewBox="0 0 24 24">
  <path d="m8.022,15.811c-.121.63.292,1.214.476,1.436.401.486.91.753,1.434.753h4.135c.835,0,1.3-.349,1.543-.642.333-.403.462-.965.353-1.545-.259-1.358-1.079-2.637-2.422-3.806,1.343-1.168,2.163-2.447,2.422-3.807.109-.579-.02-1.141-.353-1.544-.243-.293-.708-.642-1.543-.642h-4.135c-.524,0-1.033.268-1.434.753-.184.222-.597.806-.476,1.435.261,1.359,1.085,2.638,2.434,3.805-1.349,1.167-2.174,2.446-2.434,3.804Zm2.014-7.766c.009-.011.018-.021.027-.031h3.892c-.22.865-.988,1.862-1.957,2.688-.961-.814-1.734-1.803-1.962-2.657Zm1.962,5.268c.958.816,1.724,1.805,1.952,2.688h-3.887c-.009-.009-.018-.02-.027-.031.228-.853,1.001-1.842,1.962-2.657ZM9.028,1.359c-.099-.543.261-1.064.804-1.164.711-.129,1.44-.195,2.168-.195.552,0,1,.448,1,1s-.448,1-1,1c-.607,0-1.216.055-1.809.163-.061.011-.121.016-.181.016-.474,0-.895-.338-.983-.82ZM1.574,15.658c-.082.02-.164.03-.244.03-.448,0-.855-.303-.969-.757-.176-.703-.289-1.427-.335-2.152-.035-.551.383-1.026.934-1.062.551-.037,1.027.383,1.062.934.039.605.133,1.208.28,1.794.134.536-.191,1.079-.727,1.213ZM3.942,4.446c-.367-.413-.33-1.045.082-1.412.543-.483,1.132-.919,1.751-1.295.474-.286,1.088-.136,1.374.335.287.472.137,1.087-.335,1.374-.516.313-1.007.677-1.46,1.08-.191.169-.428.253-.665.253-.276,0-.55-.113-.748-.335Zm16.978-.446c3.146,3.52,4.154,8.764,1.739,13.473-1.661,3.238-4.742,5.615-8.316,6.302-4.933.949-9.753-1.166-12.403-5.229-.301-.463-.171-1.083.292-1.384.465-.301,1.083-.171,1.384.292,2.359,3.619,6.785,5.384,11.182,4.16,2.232-.621,4.19-2.065,5.469-3.997,2.895-4.372,1.95-9.566-1.267-12.74v3.123c0,.552-.447,1-1,1s-1-.448-1-1v-4c0-1.105.895-2,2-2h4c.553,0,1,.448,1,1s-.447,1-1,1h-2.08ZM.527,8.47c.213-.694.492-1.372.829-2.016.256-.489.859-.679,1.349-.423.489.255.679.859.423,1.349-.28.536-.512,1.101-.689,1.678-.132.43-.528.707-.956.707-.098,0-.196-.015-.294-.044-.528-.163-.824-.722-.662-1.25Z"/>
</svg>
